# xmcd
#
# Track frame offsets:
#	150
#	17677
#	46387
#	73007
#	88335
#	101417
#	125155
#	147612
#	173075
#	193542
#	206560
#	223655
#	244567
#	262865
#	276167
#	294585
#	304950
#	321542
#	333092
#
# Disc length: 4584
#
# Revision: 3
# Processed by: cddbd v1.5.1PL0 Copyright (c) Steve Scherf et al.
# Submitted via: EZCDDA 4.3.2
# Normalized: r2:TDELIM( - )
#
DISCID=2a11e613
DTITLE=Varioss - Chicago Blues
DYEAR=1900
DGENRE=
TTITLE0=We're ready - Buddy Guy and Junior Wells
TTITLE1=First Time I Met The Blues - Buddy Guy and Junior Wells
TTITLE2=Country Girl - Buddy Guy and Junior Wells
TTITLE3=Hoodoo Man - Buddy Guy and Junior Wells
TTITLE4=We're ready - Buddy Guy and Junior Wells
TTITLE5=In my younger days - Buddy Guy and Junior Wells
TTITLE6=Driving Wheel - Johhny Young with Lefty Dizz
TTITLE7=Walking Groundhog - Johhny Young with Lefty Dizz
TTITLE8=She's 19 years old - Muddy Waters with Buddy Guy
TTITLE9=Hoochie Coochie Man - Muddy Waters with Buddy Guy
TTITLE10=Got my mojo working - Muddy Waters with Buddy Guy
TTITLE11=Why you want to hurt me - Mighty Joe Young
TTITLE12=Wang Dang Doodle - Koko Taylor
TTITLE13=Speak My Mind - J. B. Hutto
TTITLE14=Come On Back To Me - J.B. Hutto
TTITLE15=You're gonna Miss Me - Johnny Lewis
TTITLE16=Uncle Sam - Johnny Lewis
TTITLE17=Hobo Blues - Johnny Lewis
TTITLE18=I Hear You Knocking - Johnny Lewis
EXTD=From the film Chicago Blues\nDe la película: Chicago Blues\nMade in Holland
EXTT0=
EXTT1=
EXTT2=
EXTT3=
EXTT4=
EXTT5=
EXTT6=
EXTT7=
EXTT8=
EXTT9=
EXTT10=
EXTT11=
EXTT12=
EXTT13=
EXTT14=
EXTT15=
EXTT16=
EXTT17=
EXTT18=
PLAYORDER=
